<svg width="268" height="94" viewBox="0 0 268 94" fill="none" xmlns="http://www.w3.org/2000/svg">
<g filter="url(#filter0_d_2035_153)">
<path d="M201.37 36.0289V55.2946H206.242V35.5399C204.624 35.5399 203.006 35.6982 201.42 36.0148L201.374 36.0253L201.37 36.0289Z" fill="white"/>
<path d="M200.934 30.0771C200.934 33.8691 206.678 33.8691 206.678 30.0771C206.678 26.2852 200.934 26.2852 200.934 30.0771Z" fill="white"/>
<path d="M233.162 35.3465C230.608 35.3465 228.329 36.1415 226.577 38.9344C225.459 36.2259 223.106 35.2621 220.749 35.2621L220.277 35.2832H220.094C218.712 35.343 217.333 35.5365 215.986 35.8741C215.982 35.8741 215.972 35.8741 215.965 35.8777C215.733 35.9375 215.504 36.0008 215.275 36.0782C213.664 36.5917 212.152 37.4465 210.71 38.347C210.706 38.3505 210.695 38.3576 210.692 38.3611C210.548 38.449 210.407 38.5405 210.305 38.6812C210.013 39.0611 210.33 39.8068 210.393 40.2359C210.495 40.9043 210.555 41.5797 210.593 42.2515C210.66 43.4404 210.696 44.6294 210.696 45.8218V55.3017H215.567V44.7631C215.567 44.742 215.567 44.7208 215.571 44.6997C215.56 44.5344 215.553 44.3761 215.543 44.2178C215.504 43.553 215.43 42.8776 215.318 42.1882C215.279 41.949 215.24 41.6992 215.191 41.4249C215.705 41.0274 216.267 40.6827 216.879 40.4013C217.84 39.958 218.765 39.8138 219.658 39.8138H219.75C222.427 39.8138 223.781 42.1706 223.781 44.7631V55.3017H228.653V44.7631C228.653 42.1706 230.288 39.8983 232.92 39.8983C235.551 39.8983 236.634 42.0932 236.634 44.6857V55.3017H241.499V44.6857C241.499 38.7797 238.745 35.3465 233.162 35.3465Z" fill="white"/>
<path d="M188.834 35.3465C186.28 35.3465 184.001 36.1415 182.249 38.9344C181.13 36.2259 178.777 35.2621 176.42 35.2621L175.949 35.2832H175.766C174.384 35.343 173.005 35.5365 171.657 35.8741C171.654 35.8741 171.643 35.8741 171.636 35.8777C171.404 35.9375 171.176 36.0008 170.947 36.0782C169.336 36.5917 167.823 37.4465 166.381 38.347C166.378 38.3505 166.367 38.3576 166.364 38.3611C166.219 38.449 166.079 38.5405 165.977 38.6812C165.685 39.0611 166.001 39.8068 166.065 40.2359C166.167 40.9043 166.226 41.5797 166.265 42.2515C166.332 43.4404 166.367 44.6294 166.367 45.8218V55.3017H171.239V44.7631C171.239 44.742 171.239 44.7208 171.242 44.6997C171.232 44.5344 171.225 44.3761 171.214 44.2178C171.176 43.553 171.102 42.8776 170.989 42.1882C170.95 41.949 170.912 41.6992 170.862 41.4249C171.376 41.0274 171.939 40.6827 172.551 40.4013C173.511 39.958 174.436 39.8138 175.33 39.8138H175.421C178.098 39.8138 179.452 42.1706 179.452 44.7631V55.3017H184.324V44.7631C184.324 42.1706 185.96 39.8983 188.591 39.8983C191.222 39.8983 192.306 42.0932 192.306 44.6857V55.3017H197.17V44.6857C197.17 38.7797 194.416 35.3465 188.834 35.3465Z" fill="white"/>
<path d="M161.738 49.9198L161.587 49.7193C160.806 48.6957 160.253 47.2288 159.947 45.368L158.333 35.2163L157.774 34.7977C155.927 34.4706 154.027 34.4037 152.131 34.6042C150.228 34.8012 148.417 35.2937 146.753 36.0605C145.093 36.8274 143.661 37.9037 142.504 39.2615C141.35 40.6087 140.58 42.2866 140.231 44.2389C139.989 45.5932 139.985 46.8313 140.217 47.9183C140.45 49.0017 140.858 49.9725 141.431 50.7956C142.008 51.6223 142.704 52.3399 143.496 52.9238C144.291 53.5112 145.145 53.9966 146.035 54.3765C146.922 54.7494 147.801 55.0167 148.638 55.168C149.736 55.365 150.957 55.4213 152.269 55.3333C153.56 55.2454 154.868 55.0132 156.152 54.6368L156.708 53.3846L156.989 52.7479L157.179 52.3117L157.475 52.7162C157.527 52.7866 157.577 52.8605 157.629 52.9273C158.097 53.5394 158.649 54.0635 159.279 54.4961C160.257 55.168 161.569 55.6569 163.184 55.97L163.922 51.4183C162.684 51.165 162.361 50.7394 161.738 49.9198ZM155.98 50.56C155.55 50.6479 155.086 50.7183 154.59 50.7886C153.254 50.961 151.857 50.9223 150.432 50.6655C149.458 50.4896 148.536 50.1414 147.689 49.6278C146.834 49.1072 146.176 48.4178 145.729 47.5876C145.283 46.7469 145.149 45.7655 145.35 44.6645C145.487 43.8977 145.817 43.1449 146.324 42.4309C146.83 41.7203 147.534 41.0907 148.417 40.563C149.293 40.0354 150.352 39.6449 151.565 39.3846C152.181 39.2545 152.842 39.1876 153.542 39.1806C153.711 39.1806 153.862 39.1876 153.939 39.2123L154.428 41.8575L155.47 47.4469C155.652 48.3017 155.867 49.0896 156.106 49.8072H156.099L156.328 50.4896L155.98 50.56Z" fill="white"/>
<path d="M138.033 47.0987C138.033 49.955 136.967 52.1464 134.842 53.6731C133.815 54.4153 132.623 54.9746 131.269 55.358C129.83 55.766 128.208 55.97 126.404 55.97C124.325 55.97 122.316 55.7344 120.378 55.263C118.44 54.7916 116.903 54.1163 115.77 53.2334V52.7479C115.96 51.9354 116.083 50.9364 116.154 49.7404C116.213 48.6992 116.245 48.3721 116.252 47.3309L121.135 47.7741C121.127 48.0273 121.113 47.549 121.099 47.7741C121.061 48.4389 120.99 49.1143 120.878 49.8037C120.839 50.0429 120.779 50.3138 120.734 50.5846C121.771 51.0876 122.724 51.4007 123.593 51.5344C124.459 51.668 125.271 51.7314 126.027 51.7314C126.435 51.7314 126.826 51.7173 127.202 51.6927C128.514 51.5977 129.644 51.3374 130.586 50.9153C131.8 50.3736 132.408 49.2761 132.408 47.6299C132.408 45.8359 131.715 44.6364 130.326 44.0349C129.742 43.7781 129.119 43.5495 128.462 43.349C127.561 43.064 126.59 42.8319 125.553 42.6419C124.103 42.3781 122.644 42.0264 121.163 41.5831H121.159C119.675 41.1435 118.447 40.4083 117.469 39.3776C116.896 38.7726 116.491 37.9987 116.256 37.0525C116.09 36.3947 116.006 35.6525 116.006 34.8329C116.006 34.0133 116.087 33.2535 116.256 32.557C116.688 30.7174 117.701 29.3209 119.291 28.3711C119.893 28.0088 120.519 27.6993 121.163 27.439C122.851 26.753 124.677 26.4083 126.64 26.4083C127.252 26.4083 127.86 26.4365 128.462 26.4963C129.717 26.6053 130.945 26.8445 132.148 27.1998C132.577 27.3299 132.985 27.4671 133.372 27.6149C134.579 28.0757 135.564 28.6279 136.33 29.2752L136.57 34.3862L133.326 34.6606L132.363 34.7415L131.983 31.9661C131.1 31.4947 130.217 31.1711 129.334 30.9952C129.038 30.9354 128.75 30.8862 128.462 30.8475C127.888 30.7701 127.329 30.7314 126.784 30.7314C125.299 30.7314 124.072 31.0093 123.097 31.5686C122.119 32.1279 121.63 33.0249 121.63 34.2596C121.63 35.7018 122.236 36.6796 123.449 37.1932C124.663 37.7103 126.027 38.1289 127.54 38.4525C127.839 38.5123 128.145 38.5791 128.462 38.6495C129.517 38.8852 130.674 39.1701 131.933 39.5113C132.433 39.645 132.911 39.8103 133.372 40.0108C134.42 40.4646 135.367 41.0837 136.211 41.8716C137.424 43.0043 138.033 44.7455 138.033 47.0987Z" fill="white"/>
<path d="M99.1007 34.1258C98.967 32.5464 98.5308 30.9143 97.7957 29.5073C97.1449 28.2655 95.8821 27.1399 94.8092 26.2676C92.4982 24.3927 89.6947 23.158 86.7962 22.5425C86.652 22.5108 86.5042 22.4827 86.36 22.4545C79.3073 21.1143 71.8852 22.859 65.5958 26.0987C65.5324 26.1304 65.4691 26.1656 65.4058 26.1972C60.3827 28.8178 56.1405 32.4093 52.44 36.6655C50.4033 39.0082 48.6164 41.5198 47.4169 44.4077C47.3008 44.6891 47.1496 44.9564 47.0159 45.2308C46.8225 45.1183 46.7029 44.9283 46.5657 44.763C42.5345 39.9439 39.921 33.8163 38.7567 27.6711C38.7109 27.4248 38.6582 27.1645 38.4964 26.9746C38.1129 26.5314 37.3918 26.7178 36.8642 26.9781C34.8416 27.9771 33.0758 29.56 31.4718 31.1218C29.6778 32.8665 27.9507 34.664 26.6738 36.8414C26.308 37.4675 25.9421 38.1746 26.0125 38.9097C26.0863 39.6519 26.2904 40.4117 26.4733 41.1328C26.8497 42.5997 27.3562 44.0313 27.9788 45.4102C29.2275 48.1785 30.9371 50.7358 32.9843 52.98C34.029 54.1268 35.1617 55.1926 36.3717 56.1634C41.8451 60.5604 48.7219 63.0438 55.7079 63.772C62.8415 64.5142 70.3304 63.4202 77.2002 61.4468C81.7168 60.1489 86.3952 57.9046 89.9304 54.7846C93.7153 51.4393 96.262 46.87 97.8941 42.0896C98.7771 39.5077 99.3258 36.7535 99.1042 34.1293L99.1007 34.1258ZM59.338 44.07C65.0154 39.9404 71.7374 37.2811 78.7234 37.0173C81.4776 36.9117 84.2952 37.1826 86.8314 38.2695C88.2982 38.8992 89.6525 39.8138 90.7394 40.9851C91.2846 41.5725 91.7595 42.2268 92.1394 42.9374C92.2625 43.1695 92.6459 43.7183 92.6213 43.9821C92.5967 44.2459 92.1921 44.4288 92.0057 44.5836C91.5344 44.974 91.0454 45.3469 90.5459 45.6987C89.561 46.3916 88.5268 47.0107 87.461 47.5665C85.3153 48.6851 83.0465 49.5469 80.7354 50.2504C75.7616 51.77 70.5485 52.5755 65.3425 52.4489C63.1335 52.3961 60.9244 52.171 58.7541 51.7559C57.6812 51.5519 56.6189 51.3022 55.5671 51.0032C55.0782 50.866 54.5365 50.7675 54.0757 50.5529C53.6712 50.363 53.2702 50.1308 52.8797 49.9233C53.1787 49.3499 53.8787 48.8117 54.3395 48.3509C54.8566 47.8338 55.3878 47.3308 55.9295 46.8384C57.0164 45.8569 58.1561 44.9318 59.338 44.0735V44.07Z" fill="#D93408"/>
<path d="M92.002 44.5836C91.5447 44.9916 91.0417 45.3469 90.5422 45.6987C89.5573 46.3916 88.5231 47.0107 87.4573 47.5665C85.3116 48.6851 83.0427 49.5469 80.7317 50.2504C71.7126 53.0082 60.5971 54.0318 52.1373 49.0966C50.1534 47.9393 48.4122 46.5147 46.8891 44.8861C42.5238 40.2288 39.9595 33.9324 38.7529 27.6711C38.7072 27.4248 38.6544 27.1645 38.4926 26.9746C38.1092 26.5314 37.3881 26.7178 36.8605 26.9781C34.8379 27.9771 33.072 29.56 31.468 31.1218C29.6741 32.8665 27.9469 34.664 26.6701 36.8414C26.3042 37.4675 25.9384 38.1746 26.0088 38.9097C26.0826 39.6519 26.2866 40.4117 26.4696 41.1328C26.8459 42.5997 27.3525 44.0313 27.9751 45.4102C29.2238 48.1785 30.9334 50.7358 32.9806 52.98C34.0253 54.1268 35.158 55.1926 36.368 56.1634C41.8414 60.5604 48.7182 63.0438 55.7041 63.772C62.8378 64.5142 70.3267 63.4202 77.1965 61.4468C81.7131 60.1489 86.3915 57.9046 89.9266 54.7845C93.7115 51.4393 96.2583 46.87 97.8939 42.0896C98.7769 39.5077 99.3256 36.7535 99.104 34.1293C99.104 34.1293 95.0166 41.9102 92.0055 44.5871L92.002 44.5836Z" fill="url(#paint0_radial_2035_153)"/>
</g>
<defs>
<filter id="filter0_d_2035_153" x="0" y="0" width="267.499" height="94.0056" filterUnits="userSpaceOnUse" color-interpolation-filters="sRGB">
<feFlood flood-opacity="0" result="BackgroundImageFix"/>
<feColorMatrix in="SourceAlpha" type="matrix" values="0 0 0 0 0 0 0 0 0 0 0 0 0 0 0 0 0 0 127 0" result="hardAlpha"/>
<feOffset dy="4"/>
<feGaussianBlur stdDeviation="13"/>
<feComposite in2="hardAlpha" operator="out"/>
<feColorMatrix type="matrix" values="0 0 0 0 0.913725 0 0 0 0 0.309804 0 0 0 0 0.0431373 0 0 0 1 0"/>
<feBlend mode="normal" in2="BackgroundImageFix" result="effect1_dropShadow_2035_153"/>
<feBlend mode="normal" in="SourceGraphic" in2="effect1_dropShadow_2035_153" result="shape"/>
</filter>
<radialGradient id="paint0_radial_2035_153" cx="0" cy="0" r="1" gradientUnits="userSpaceOnUse" gradientTransform="translate(33.0263 86.5588) scale(94.2886 94.2886)">
<stop stop-color="#EC8818"/>
<stop offset="0.07" stop-color="#E66F13"/>
<stop offset="0.15" stop-color="#E1590F"/>
<stop offset="0.25" stop-color="#DD480B"/>
<stop offset="0.37" stop-color="#DA3C09"/>
<stop offset="0.53" stop-color="#D93508"/>
<stop offset="1" stop-color="#D93408"/>
</radialGradient>
</defs>
</svg>
